<svg xmlns="http://www.w3.org/2000/svg" xml:space="preserve" width="2000" height="178" data-id="lg_AEjo2RqZmBKUhIYuCX" data-version="1" viewBox="0 0 2000 178"><g data-padding="20"><g transform="translate(10 3.184)scale(.96422)"><rect width="470.113" height="122.04" x="391.678" y="-371.8" fill="none" rx="0" ry="0" transform="translate(399.41 393.39)"/><path fill="#aaa" d="M813.635 55.99h11.5q9.39 0 12.13 8.44.84 2.74.84 5.91 0 13.71-12.23 15.08-1.27.11-2.53.11h-9.71Zm-17.5 60.54h28.05q0-2.32-1.69-2.63-.52-.11-1.05-.11h-7.81V88.58h9.29q17.29 0 22.88-9.8 2.22-3.7 2.22-8.55 0-10.44-9.07-14.66-4.85-2.32-11.6-2.32h-31.22v2.74h8.43v57.8h-8.43Zm109.38-2.63h-5.28V71.71h-16.55v2.64h8.64v22.78q0 9.49-6.64 13.92-2.95 2-6.12 2-8.65 0-10.02-8.86-.21-1.47-.21-3.16V71.71h-16.03v2.64h8.12v25.1q.11 18.03 15.08 18.14 7.91 0 12.98-6.44 1.9-2.42 3.06-5.37l.73 10.75h14.87q0-2.32-1.58-2.53-.42-.1-1.05-.1m32.27 0h-7.59V92.91q0-9.6 5.9-15.4 2.32-2.21 3.91-2.32 1.79 0 3.27 2.64 1.68 2.95 3.16 3.37.63.21 1.27.21 3.16 0 4-3.06.21-.63.21-1.26 0-4.75-4.85-5.8-1.05-.21-2-.21-6.33 0-11.29 5.38-2.32 2.53-3.69 5.69l-.42-10.44h-15.29v2.64h7.91v33.22q0 4.85-2.74 5.8-1.59.53-5.17.53v2.63h26.05q0-2.32-1.58-2.53-.43-.1-1.06-.1m40.92-40.61q7.39 0 9.81 6.22.85 2.01.85 4.33 0 5.27-5.07 6.43-2.63.53-7.49.42l-11.17-.31q.52-12.13 7.91-15.82 2.42-1.27 5.16-1.27m18.35 33.12-2.63-.95q-3.69 8.02-11.92 9.07-1.05.11-2 .11-11.08 0-13.93-13.19-.84-3.69-.94-8.12l12.65.21q12.87.21 16.56-2.42 2.85-2.11 2.85-6.02 0-7.17-7.28-11.39-5.17-3.06-11.92-3.06-13.18 0-18.88 10.97-2.95 5.7-2.95 12.87 0 13.08 9.39 19.41 5.59 3.69 12.76 3.69 11.39 0 16.77-8.23.84-1.47 1.47-2.95m30.79 7.49h-7.38V74.35h12.13v-2.64h-12.13v-.63q0-18.04 5.38-20.46 1.16-.53 2.53-.53 3.27 0 5.48 3.9 1.9 3.38 2.75 4.01.84.63 1.89.63 3.48 0 4.12-2.95.1-.53.1-.95 0-3.9-5.27-6.12-3.06-1.16-6.86-1.16-9.91 0-14.76 8.23-3.27 5.69-3.27 14.34v1.69h-7.38v2.64h7.38v33.22q0 4.85-2.74 5.8-1.59.53-5.17.53v2.63h25.84q0-2.32-1.58-2.53-.43-.1-1.06-.1m46.84 3.69q8.12 0 8.96-9.81.11-.63.11-1.16l-2.74-.11q-.74 7.7-4.12 7.81-2.74-.21-2.84-5.49V86.58q0-15.08-15.08-15.93h-1.9q-11.82 0-15.82 5.49-1.27 1.79-1.27 3.59 0 3.26 3.06 3.79.53.11 1.05.11 2.43 0 3.59-3.06 1.48-3.9 2-4.64 2.01-2.64 6.23-2.64 9.91.63 10.23 10.86v6.65q-24.79 0-28.37 10.34-.64 2-.64 4.32 0 8.02 7.07 10.97 2.85 1.16 6.01 1.16 7.7 0 12.97-5.28 1.9-2 2.85-4.21 1.27 9.38 8.65 9.49m-20.99-4.22q-6.43 0-7.91-6.43-.31-1.48-.31-3.27 0-7.07 8.12-8.97 4.32-.95 12.55-1.05v8.43q-1.59 7.28-7.7 10.23-2.43 1.06-4.75 1.06m62.86 4.23q9.28 0 15.61-6.96 5.91-6.75 5.91-17.09 0-11.6-6.33-18.14-4.75-4.75-11.71-4.75-11.49 0-16.35 10.34-.52.95-.84 1.9V47.99h-15.82v2.64h7.91v56.95q0 4.85-2.74 5.8-1.58.53-5.17.53v2.63h13.29l.95-6.96q4.53 7.28 13.71 7.91.84.11 1.58.11m.21-42.72q8.65 0 11.29 10.55 1.05 3.9 1.05 8.86 0 14.87-8.01 19.3-2.54 1.37-5.59 1.37-7.91 0-11.18-8.44-1.59-4.43-1.59-10.23 0-12.76 6.33-18.45 3.38-2.96 7.7-2.96m52.31 39.02h-7.59V92.91q0-9.6 5.91-15.4 2.32-2.21 3.9-2.32 1.79 0 3.27 2.64 1.69 2.95 3.16 3.37.64.21 1.27.21 3.16 0 4.01-3.06.21-.63.21-1.26 0-4.75-4.85-5.8-1.06-.21-2.01-.21-6.33 0-11.28 5.38-2.32 2.53-3.69 5.69l-.43-10.44h-15.29v2.64h7.91v33.22q0 4.85-2.74 5.8-1.58.53-5.17.53v2.63h26.05q0-2.32-1.58-2.53-.42-.1-1.06-.1m39.45 0h-5.27V71.71h-16.35v2.64h8.44v33.22q0 4.85-3.27 5.91-1.59.42-5.17.42v2.63h24.26q0-2.32-1.59-2.53-.52-.1-1.05-.1m-4.01-57.59q0-3.69-3.27-5.27-1.26-.53-2.42-.53-3.69 0-5.28 3.38-.52 1.16-.52 2.42 0 3.9 3.48 5.38 1.16.42 2.32.42 3.69 0 5.16-3.37.53-1.16.53-2.43m14.02 38.29q0 12.76 9.39 19.09 5.8 3.9 13.18 3.9 10.97 0 16.56-7.7 1.26-1.79 2-3.59l-2.74-.95q-3.9 8.34-12.87 9.18-.84.11-1.68.11-7.49 0-11.71-7.49-3.17-5.7-3.17-13.5 0-13.82 7.28-18.46 3.06-1.9 6.75-1.9 5.7 0 6.86 4.43.21.84.52 2.64.64 4.22 2.32 5.27 1.06.53 2.32.63 3.59.22 4.54-2.95.21-.74.21-1.37 0-5.38-6.85-8.86-4.86-2.43-10.55-2.43-14.13 0-19.72 11.5-2.64 5.49-2.64 12.45"/><rect width="99.542" height="35.03" x="576.964" y="-328.295" fill="none" rx="0" ry="0" transform="translate(399.86 471.24)"/><path fill="#aaa" d="M994.975 168.81q0 1.27.37 1.46.21.09.57.09v-5.73h-.73q-1.54 5-6.17 5.03-3.94 0-5.36-3.97-.7-1.93-.7-4.57 0-5.66 3.12-7.69 1.36-.84 3.03-.84 3.78 0 5.48 3.57.3.63.51 1.3h.73l-.09-5.57q-.67 0-.82.42-.09.37-.09 1.18-.88-.87-3-1.42-1.39-.33-2.84-.33-4.78 0-7.33 3.54-1.75 2.51-1.75 5.78 0 3.97 2.45 6.66 2.6 2.79 6.78 2.79 3.06-.03 5.84-1.7m9.48.63h-1.64v-18.92h-4.54v.75h2.27v16.35q0 1.39-.78 1.67-.46.15-1.49.15v.76h6.94q0-.67-.46-.73-.12-.03-.3-.03m5.36-5.68q0-4.7 2.57-5.72.67-.25 1.39-.25 3.36 0 3.91 4.24.09.73.09 1.61 0 5.08-2.79 5.96-.54.15-1.12.15-3.05 0-3.84-3.63-.21-1.06-.21-2.36m4.05-6.72q-2.9 0-4.84 1.99-1.79 1.85-1.79 4.61 0 3.81 2.79 5.72 1.69 1.15 3.75 1.15 2.91 0 4.82-2.06 1.75-1.88 1.75-4.69 0-3.82-2.81-5.66-1.67-1.06-3.67-1.06m8.3.29v.76h2.12v8.53q.21 3.79 3.48 3.91 2.78 0 3.48-3.42v-.06l-.82-.15q-.75 2.51-2.21 2.72-1.63-.06-1.66-2.33v-9.2h4.69v-.76h-4.69v-3.51l-2.27.63v2.88Zm16.27 12.11h-1.52v-6.54q0-2.76 1.91-4 .79-.51 1.63-.51 1.85 0 2.58 1.72.33.82.33 1.82v5.69q0 1.39-.67 1.67-.42.15-1.45.15v.76h6.66q0-.67-.45-.73-.12-.03-.31-.03h-1.51v-7.51q0-3.3-2.18-4.48-.85-.42-1.82-.42-2.24 0-3.75 1.63-.64.7-.97 1.58v-9.72h-4.54v.75h2.27v16.35q0 1.39-.79 1.67-.45.15-1.48.15v.76h6.81q0-.67-.45-.73-.12-.03-.3-.03m17.79-11.65q2.12 0 2.81 1.79.24.57.24 1.24 0 1.51-1.45 1.85-.76.15-2.15.12l-3.21-.09q.15-3.48 2.27-4.54.7-.37 1.49-.37m5.26 9.51-.75-.27q-1.06 2.3-3.42 2.6-.31.03-.58.03-3.18 0-4-3.78-.24-1.06-.27-2.34l3.63.07q3.7.06 4.76-.7.82-.61.82-1.73 0-2.06-2.09-3.27-1.49-.87-3.42-.87-3.79 0-5.42 3.14-.85 1.64-.85 3.7 0 3.75 2.69 5.57 1.61 1.06 3.67 1.06 3.27 0 4.81-2.36.24-.43.42-.85m7 2.38q2.09 0 2.81-1.27.27-.46.27-1 0-1.27-1.84-2.18-.4-.21-1.3-.61-2.49-1.02-3.3-1.93-.88-1-.88-2.33 0-2.09 2.3-2.94 1.06-.39 2.3-.39 2 0 3.45.84 0-.87.43-1 .18-.03.39-.03v3.79h-.79q-.06-2.79-3.09-2.82-2.27 0-2.81 1.34-.15.36-.15.75 0 1.3 1.87 2.21.43.21 1.34.58 2.45 1 3.27 1.9.87.97.87 2.31 0 2.45-2.6 3.26-1 .34-2.18.34-2.18-.03-3.78-1.09 0 .79-.4.91-.18.03-.42.03v-4.61h.85q.06 3.91 3.39 3.94"/><path fill="#aaa" d="M747.339.025v164.679h135.21v-4.7h-130.51V4.725h549.392v155.279h-130.51v4.7h135.21V.025Z"/></g><path fill="transparent" stroke="transparent" d="M720.5 0h559v178h-559z"/></g></svg>